<svg version="1.1" viewBox="0 0 36 36" xmlns="http://www.w3.org/2000/svg">
    <rect width="36" height="36" rx="4" ry="4" style="fill-rule:evenodd;fill:#d1d1d1"/>
    <g transform="matrix(.88889 0 0 .88889 2 2)" fill="#3b88c3" style="stroke-width:1.125">
        <path d="M 10,8.8889 C 10,9.50251 9.5025,10 8.8889,10 H 1.1111 C 0.49749,10 0,9.5025 0,8.8889 V 1.1111 C 0,0.49749 0.4975,0 1.1111,0 H 8.8889 C 9.50251,0 10,0.4975 10,1.1111 Z" style="stroke-width:1.125"/>
        <path d="M 23,8.8889 C 23,9.50251 22.5025,10 21.8889,10 H 14.1111 C 13.49749,10 13,9.5025 13,8.8889 V 1.1111 C 13,0.49749 13.4975,0 14.1111,0 h 7.7778 C 22.50251,0 23,0.4975 23,1.1111 Z" style="stroke-width:1.125"/>
        <path d="M 36,8.8889 C 36,9.50251 35.5025,10 34.8889,10 H 27.1111 C 26.49749,10 26,9.5025 26,8.8889 V 1.1111 C 26,0.49749 26.4975,0 27.1111,0 h 7.7778 C 35.50251,0 36,0.4975 36,1.1111 Z" style="stroke-width:1.125"/>
        <path d="m10 21.889c0 0.61361-0.4975 1.1111-1.1111 1.1111h-7.7778c-0.61361 0-1.1111-0.4975-1.1111-1.1111v-7.7778c0-0.61361 0.4975-1.1111 1.1111-1.1111h7.7778c0.61361 0 1.1111 0.4975 1.1111 1.1111z" style="stroke-width:1.125"/>
        <path d="m23 21.889c0 0.61361-0.4975 1.1111-1.1111 1.1111h-7.7778c-0.61361 0-1.1111-0.4975-1.1111-1.1111v-7.7778c0-0.61361 0.4975-1.1111 1.1111-1.1111h7.7778c0.61361 0 1.1111 0.4975 1.1111 1.1111z" style="stroke-width:1.125"/>
        <path d="m36 21.889c0 0.61361-0.4975 1.1111-1.1111 1.1111h-7.7778c-0.61361 0-1.1111-0.4975-1.1111-1.1111v-7.7778c0-0.61361 0.4975-1.1111 1.1111-1.1111h7.7778c0.61361 0 1.1111 0.4975 1.1111 1.1111z" style="stroke-width:1.125"/>
        <path d="m10 34.889c0 0.61361-0.4975 1.1111-1.1111 1.1111h-7.7778c-0.61361 0-1.1111-0.4975-1.1111-1.1111v-7.7778c0-0.61361 0.4975-1.1111 1.1111-1.1111h7.7778c0.61361 0 1.1111 0.4975 1.1111 1.1111z" style="stroke-width:1.125"/>
        <path d="m23 34.889c0 0.61361-0.4975 1.1111-1.1111 1.1111h-7.7778c-0.61361 0-1.1111-0.4975-1.1111-1.1111v-7.7778c0-0.61361 0.4975-1.1111 1.1111-1.1111h7.7778c0.61361 0 1.1111 0.4975 1.1111 1.1111z" style="stroke-width:1.125"/>
        <path d="m36 34.889c0 0.61361-0.4975 1.1111-1.1111 1.1111h-7.7778c-0.61361 0-1.1111-0.4975-1.1111-1.1111v-7.7778c0-0.61361 0.4975-1.1111 1.1111-1.1111h7.7778c0.61361 0 1.1111 0.4975 1.1111 1.1111z" style="stroke-width:1.125"/>
    </g>
</svg>
