<?xml version="1.0" encoding="UTF-8" standalone="no"?>
<!-- Created with Inkscape (http://www.inkscape.org/) -->

<svg
   width="36"
   height="36"
   viewBox="0 0 36 36"
   version="1.1"
   id="SVGRoot"
   xmlns="http://www.w3.org/2000/svg"
   xmlns:svg="http://www.w3.org/2000/svg">
  <defs
     id="defs2239" />
  <rect
     style="fill:#e5e5e5;fill-opacity:1;fill-rule:evenodd;stroke:none;stroke-linecap:square;stroke-opacity:1"
     id="rect710"
     width="32"
     height="32"
     x="2"
     y="2"
     ry="5"
     rx="5" />
  <path
     id="rect2374"
     style="fill:#0071bc;fill-rule:evenodd;stroke-width:2;stroke-linejoin:round"
     d="m 6,5 c 0,0 0.68,-0.1 1,0 1.45,0.34 2.55,1.66 4,2 0.6,0.15 1.4,0.15 2,0 1.5,-0.34 2.5,-1.66 4,-2 0.3,-0.1 1,0 1,0 1.1,0 2,-0.11 2,1 v 18 c 0,1.1 -0.9,1 -2,1 H 6 C 4.89,25 4,25.1 4,24 V 6 C 4,4.89 4.89,5 6,5 Z"
     transform="translate(6,6)" />
  <path
     style="fill:#0071bc;fill-opacity:1;fill-rule:evenodd;stroke:none;stroke-width:1px;stroke-linecap:butt;stroke-linejoin:miter;stroke-opacity:1"
     d="m 15,6 h 6 c 0.5,0 0.9,0.53 1,1 0.1,0.74 -0.5,1.47 -1,2 -0.5,0.53 -1.3,0.83 -2,1 -0.6,0.2 -1.4,0.2 -2,0 C 16.3,9.83 15.5,9.53 15,9 14.5,8.47 13.9,7.74 14,7 14.1,6.53 14.5,6 15,6 Z"
     id="path2802" />
  <rect
     style="fill:none;fill-opacity:1;fill-rule:evenodd;stroke:#e5e5e5;stroke-width:1.0005;stroke-linecap:square;stroke-linejoin:miter;stroke-dasharray:none;stroke-opacity:1;paint-order:normal"
     id="rect2805"
     width="2"
     height="2"
     x="12.5"
     y="15.5" />
  <rect
     style="fill:none;fill-opacity:1;fill-rule:evenodd;stroke:#e5e5e5;stroke-width:1.0005;stroke-linecap:square;stroke-linejoin:miter;stroke-dasharray:none;stroke-opacity:1;paint-order:normal"
     id="rect2805-5"
     width="2"
     height="2"
     x="12.5"
     y="20.5" />
  <path
     style="fill:none;fill-rule:evenodd;stroke:#e5e5e5;stroke-width:2;stroke-linecap:round;stroke-linejoin:miter;stroke-dasharray:none;stroke-opacity:1"
     d="m 17,17 h 7"
     id="path3193" />
  <path
     style="fill:none;fill-rule:evenodd;stroke:#e5e5e5;stroke-width:2;stroke-linecap:round;stroke-linejoin:miter;stroke-dasharray:none;stroke-opacity:1"
     d="m 17,22 h 7"
     id="path3193-8" />
  <rect
     style="fill:none;fill-opacity:1;fill-rule:evenodd;stroke:#e5e5e5;stroke-width:1.0005;stroke-linecap:square;stroke-linejoin:miter;stroke-dasharray:none;stroke-opacity:1;paint-order:normal"
     id="rect2805-5-9"
     width="2"
     height="2"
     x="12.5"
     y="25.5" />
  <path
     style="fill:none;fill-rule:evenodd;stroke:#e5e5e5;stroke-width:2;stroke-linecap:round;stroke-linejoin:miter;stroke-dasharray:none;stroke-opacity:1"
     d="m 17,27 h 7"
     id="path3193-8-0" />
</svg>
