<?xml version="1.0" encoding="UTF-8" standalone="no"?>
<svg
   version="1.1"
   viewBox="0 0 36 36"
   id="svg7099"
   width="36"
   height="36"
   xmlns="http://www.w3.org/2000/svg"
   xmlns:svg="http://www.w3.org/2000/svg">
  <defs
     id="defs7103" />
  <rect
     style="fill:#e5e5e5;fill-opacity:1;fill-rule:evenodd;stroke:none;stroke-linecap:square;stroke-opacity:1"
     id="rect710"
     width="32"
     height="32"
     x="2"
     y="2"
     ry="5"
     rx="5" />
  <path
     d="m 11,8 h 8 m 5,0 h 6 c 0.5,0 1,0.5 1,1 v 18 c 0,0.5 -0.5,1 -1,1 H 6 C 5.53,28 5,27.5 5,27 V 9 C 5,8.5 5.54,8 6,8"
     style="display:inline;fill:none;stroke:#1f1f1f;stroke-width:2.00003;stroke-linecap:round;stroke-linejoin:round;stroke-opacity:1"
     id="path7079" />
  <rect
     style="fill:#3b88c3;fill-opacity:1;fill-rule:evenodd;stroke:none;stroke-width:2;stroke-linecap:round;stroke-linejoin:round;stroke-opacity:1"
     id="rect7661"
     width="4"
     height="4"
     x="9"
     y="12"
     ry="1"
     rx="1" />
  <rect
     style="fill:#c4763a;fill-opacity:1;fill-rule:evenodd;stroke:none;stroke-width:2;stroke-linecap:round;stroke-linejoin:round;stroke-opacity:1"
     id="rect7661-4"
     width="4"
     height="4"
     x="16"
     y="12"
     ry="1"
     rx="1" />
  <rect
     style="fill:#6d9c30;fill-opacity:1;fill-rule:evenodd;stroke:none;stroke-width:2;stroke-linecap:round;stroke-linejoin:round;stroke-opacity:1"
     id="rect7661-4-7"
     width="4"
     height="4"
     x="23"
     y="12"
     ry="1"
     rx="1" />
  <rect
     style="fill:#854fca;fill-opacity:1;fill-rule:evenodd;stroke:none;stroke-width:2;stroke-linecap:round;stroke-linejoin:round;stroke-opacity:1"
     id="rect7661-4-6"
     width="4"
     height="4"
     x="9"
     y="20"
     ry="1"
     rx="1" />
</svg>
