<?xml version="1.0" encoding="UTF-8" standalone="no"?>
<svg
   version="1.1"
   viewBox="0 0 24 24"
   id="svg7099"
   width="24"
   height="24"
   sodipodi:docname="MoM_dialog_24.svg"
   inkscape:version="1.2.2 (732a01da63, 2022-12-09)"
   xmlns:inkscape="http://www.inkscape.org/namespaces/inkscape"
   xmlns:sodipodi="http://sodipodi.sourceforge.net/DTD/sodipodi-0.dtd"
   xmlns="http://www.w3.org/2000/svg"
   xmlns:svg="http://www.w3.org/2000/svg">
  <sodipodi:namedview
     id="namedview7681"
     pagecolor="#505050"
     bordercolor="#eeeeee"
     borderopacity="1"
     inkscape:showpageshadow="0"
     inkscape:pageopacity="0"
     inkscape:pagecheckerboard="0"
     inkscape:deskcolor="#505050"
     showgrid="false"
     inkscape:zoom="34.3"
     inkscape:cx="8.53"
     inkscape:cy="12"
     inkscape:window-width="1920"
     inkscape:window-height="1001"
     inkscape:window-x="-7"
     inkscape:window-y="-7"
     inkscape:window-maximized="1"
     inkscape:current-layer="svg7099" />
  <defs
     id="defs7103" />
  <path
     d="M 9,4 H 8 m 4,0 h 1 m 3,0 h 3 c 0.5,0 1,0.53 1,1 v 12 c 0,0.5 -0.5,1 -1,1 H 5 C 4.53,18 4,17.5 4,17 V 5 C 4,4.48 4.54,4 5,4"
     style="display:inline;fill:#d1d1d1;fill-opacity:1;stroke:#d1d1d1;stroke-width:4;stroke-linecap:round;stroke-linejoin:round;stroke-dasharray:none;stroke-opacity:1"
     id="path7079-7" />
  <path
     d="M 9,4 H 8 m 4,0 h 1 m 3,0 h 3 c 0.5,0 1,0.53 1,1 v 12 c 0,0.5 -0.5,1 -1,1 H 5 C 4.53,18 4,17.5 4,17 V 5 C 4,4.48 4.54,4 5,4"
     style="display:inline;fill:none;stroke:#1f1f1f;stroke-width:2.00003;stroke-linecap:round;stroke-linejoin:round;stroke-opacity:1"
     id="path7079" />
  <rect
     style="fill:#3b88c3;fill-opacity:1;fill-rule:evenodd;stroke:none;stroke-width:2;stroke-linecap:round;stroke-linejoin:round;stroke-opacity:1"
     id="rect7661"
     width="3"
     height="3"
     x="7"
     y="7"
     ry="1"
     rx="1" />
  <rect
     style="fill:#3b88c3;fill-opacity:1;fill-rule:evenodd;stroke:none;stroke-width:2;stroke-linecap:round;stroke-linejoin:round;stroke-opacity:1"
     id="rect7661-7"
     width="3"
     height="3"
     x="11"
     y="7"
     ry="1"
     rx="1" />
  <rect
     style="fill:#3b88c3;fill-opacity:1;fill-rule:evenodd;stroke:none;stroke-width:2;stroke-linecap:round;stroke-linejoin:round;stroke-opacity:1"
     id="rect7661-7-36"
     width="3"
     height="3"
     x="15"
     y="7"
     ry="1"
     rx="1" />
  <rect
     style="fill:#3b88c3;fill-opacity:1;fill-rule:evenodd;stroke:none;stroke-width:2;stroke-linecap:round;stroke-linejoin:round;stroke-opacity:1"
     id="rect7661-7-3"
     width="3"
     height="3"
     x="7"
     y="12"
     ry="1"
     rx="1" />
  <rect
     style="fill:#3b88c3;fill-opacity:1;fill-rule:evenodd;stroke:none;stroke-width:2;stroke-linecap:round;stroke-linejoin:round;stroke-opacity:1"
     id="rect7661-7-3-5"
     width="3"
     height="3"
     x="11"
     y="12"
     ry="1"
     rx="1" />
</svg>
