<?xml version="1.0" encoding="UTF-8" standalone="no"?>
<!-- Created with Inkscape (http://www.inkscape.org/) -->

<svg
   width="24.0px"
   height="24.0px"
   viewBox="0 0 24.0 24.0"
   version="1.1"
   id="SVGRoot"
   xmlns="http://www.w3.org/2000/svg"
   xmlns:svg="http://www.w3.org/2000/svg">
  <defs
     id="defs2239" />
  <g
     id="layer1">
    <path
       id="rect2374"
       style="fill:#0071bc;fill-rule:evenodd;stroke-width:2;stroke-linejoin:round"
       d="m 6,5 h 1 l 4,2 h 2 l 4,-2 h 1 c 1.1,0 2,0.89 2,2 v 13 c 0,1.1 -0.9,2 -2,2 H 6 C 4.89,22 4,21.1 4,20 V 7 C 4,5.89 4.89,5 6,5 Z" />
    <path
       style="fill:#0071bc;fill-opacity:1;fill-rule:evenodd;stroke:none;stroke-width:1px;stroke-linecap:butt;stroke-linejoin:miter;stroke-opacity:1"
       d="m 9,2 h 6 c 0.5,0 1,0.53 1,1 L 15,4 13,5 H 11 L 9,4 8,3 C 7.67,2.67 8.53,2 9,2 Z"
       id="path2802" />
    <rect
       style="fill:none;fill-opacity:1;fill-rule:evenodd;stroke:#333333;stroke-width:1.0005;stroke-linejoin:miter;stroke-dasharray:none;stroke-opacity:1;paint-order:normal;stroke-linecap:square"
       id="rect2805"
       width="2"
       height="2"
       x="6.51"
       y="8.51" />
    <rect
       style="fill:none;fill-opacity:1;fill-rule:evenodd;stroke:#333333;stroke-width:1.0005;stroke-linejoin:miter;stroke-dasharray:none;stroke-opacity:1;paint-order:normal;stroke-linecap:square"
       id="rect2805-5"
       width="2"
       height="2"
       x="6.51"
       y="13.5" />
    <path
       style="fill:none;fill-rule:evenodd;stroke:#333333;stroke-width:2;stroke-linecap:round;stroke-linejoin:miter;stroke-dasharray:none;stroke-opacity:1"
       d="m 12,10 h 5"
       id="path3193" />
    <path
       style="fill:none;fill-rule:evenodd;stroke:#333333;stroke-width:2;stroke-linecap:round;stroke-linejoin:miter;stroke-dasharray:none;stroke-opacity:1"
       d="m 12,15 h 4"
       id="path3193-8" />
    <rect
       style="fill:none;fill-opacity:1;fill-rule:evenodd;stroke:#333333;stroke-width:1.0005;stroke-linejoin:miter;stroke-dasharray:none;stroke-opacity:1;paint-order:normal;stroke-linecap:square"
       id="rect2805-5-9"
       width="2"
       height="2"
       x="6.51"
       y="18.5" />
    <path
       style="fill:none;fill-rule:evenodd;stroke:#333333;stroke-width:2;stroke-linecap:round;stroke-linejoin:miter;stroke-dasharray:none;stroke-opacity:1"
       d="m 12,19 h 5"
       id="path3193-8-0" />
  </g>
</svg>
