<?xml version="1.0" encoding="UTF-8" standalone="no"?>
<!-- Created with Inkscape (http://www.inkscape.org/) -->

<svg
   width="36"
   height="36"
   viewBox="0 0 36 36"
   version="1.1"
   id="SVGRoot"
   xmlns="http://www.w3.org/2000/svg"
   xmlns:svg="http://www.w3.org/2000/svg">
  <defs
     id="defs132" />
  <rect
     style="fill:#d3d3d3;fill-opacity:1;fill-rule:evenodd;stroke:none;stroke-linecap:square;stroke-opacity:1"
     id="rect710"
     width="30"
     height="30"
     x="3"
     y="3"
     ry="5"
     rx="5" />
  <path
     id="path2174"
     style="color:#000000;fill:#0071bc;fill-rule:evenodd;stroke-width:4;stroke-linejoin:round;-inkscape-stroke:none;paint-order:markers stroke fill"
     d="M 5,3 C 4.79,3 4.59,3.02 4.39,3.06 3.22,3.3 2.3,4.22 2.06,5.39 c 0,0.1 0,0.2 0,0.3 0,0 0,0 0,0 C 2.01,5.79 2,5.9 2,6 v 7 c 0,0.1 0,0.2 0,0.3 0,0 0,0 0,0 0,0.1 0,0.2 0,0.3 0.24,1.2 1.16,2.1 2.33,2.3 0.1,0.1 0.2,0.1 0.3,0.1 0,0 0,0 0,0 0.1,0 0.21,0 0.31,0 H 7 V 11 C 7,8.25 9.25,6 12,6 h 3 C 15,5.79 15,5.59 14.9,5.39 14.7,4.22 13.8,3.3 12.6,3.06 c -0.1,0 -0.2,0 -0.3,0 0,0 0,0 0,0 -0.1,0 -0.2,0 -0.3,0 z m 7,5 C 10.3,8 9,9.32 9,11 v 5 h 3 c 1.7,0 3,-1.3 3,-3 V 8 Z m 5,0 v 5 c 0,2.8 -2.2,5 -5,5 H 9 c 0,0.1 0,0.2 0,0.3 0,0 0,0 0,0 0,0.1 0,0.2 0,0.3 0.24,1.2 1.1,2.1 2.3,2.3 0.1,0.1 0.2,0.1 0.3,0.1 0,0 0,0 0,0 0.1,0 0.2,0 0.3,0 h 7 c 0.2,0 0.4,0 0.6,-0.1 1.2,-0.2 2.1,-1.1 2.3,-2.3 C 22,18.4 22,18.2 22,18 v -7 c 0,-0.2 0,-0.4 -0.1,-0.6 -0.2,-1.18 -1.1,-2.1 -2.3,-2.34 -0.1,0 -0.2,0 -0.3,0 0,0 0,0 0,0 -0.1,0 -0.2,0 -0.3,0 z"
     transform="translate(6,6)" />
</svg>
