<svg version="1.1" viewBox="0 0 36 36" xmlns="http://www.w3.org/2000/svg">
    <path d="m30 25.333c0 1.4727-1.194 2.6666-2.6666 2.6666h-18.667c-1.4727 0-2.6666-1.194-2.6666-2.6666v-18.667c0-1.4727 1.194-2.6666 2.6666-2.6666h18.667c1.4727 0 2.6666 1.194 2.6666 2.6666z" style="fill:#3b88c3"/>
    <path transform="matrix(.94976 0 0 .94976 .90644 .80584)" d="m9.3145 4.3652c-0.4695-0.007094-0.95001 0.16876-1.3086 0.52734l-1.1133 1.1152c-0.7154 0.7154-0.68739 1.8946 0.025391 2.6074l7.4297 7.4277-7.4297 7.4277c-0.71347 0.71347-0.7415 1.8933-0.025391 2.6094l1.1133 1.1133c0.71611 0.71612 1.8959 0.68808 2.6094-0.02539l7.4277-7.4297 7.4277 7.4297c0.71348 0.71348 1.8933 0.7415 2.6094 0.02539l1.1133-1.1133c0.71611-0.71611 0.68808-1.8959-0.02539-2.6094l-7.4297-7.4277 7.4297-7.4277c0.71278-0.71278 0.74079-1.892 0.02539-2.6074l-1.1133-1.1152c-0.71682-0.71683-1.8966-0.68544-2.6094 0.027344l-7.4277 7.4277-7.4277-7.4277c-0.35665-0.35665-0.82722-0.54753-1.3008-0.55469z" style="fill-rule:evenodd;paint-order:normal;stroke-linecap:round;stroke-linejoin:round;stroke-width:1.5793;stroke:#9cc3e1"/>
</svg>
