<svg version="1.1" viewBox="0 0 36 36" xmlns="http://www.w3.org/2000/svg">
    <g fill="#3b88c3">
        <path d="m10 8.8889c0 0.61361-0.4975 1.1111-1.1111 1.1111h-7.7778c-0.61361 0-1.1111-0.4975-1.1111-1.1111v-7.7778c0-0.61361 0.4975-1.1111 1.1111-1.1111h7.7778c0.61361 0 1.1111 0.4975 1.1111 1.1111z"/>
        <path d="m23 8.8889c0 0.61361-0.4975 1.1111-1.1111 1.1111h-7.7778c-0.61361 0-1.1111-0.4975-1.1111-1.1111v-7.7778c0-0.61361 0.4975-1.1111 1.1111-1.1111h7.7778c0.61361 0 1.1111 0.4975 1.1111 1.1111z"/>
        <path d="m36 8.8889c0 0.61361-0.4975 1.1111-1.1111 1.1111h-7.7778c-0.61361 0-1.1111-0.4975-1.1111-1.1111v-7.7778c0-0.61361 0.4975-1.1111 1.1111-1.1111h7.7778c0.61361 0 1.1111 0.4975 1.1111 1.1111z"/>
        <path d="m10 21.889c0 0.61361-0.4975 1.1111-1.1111 1.1111h-7.7778c-0.61361 0-1.1111-0.4975-1.1111-1.1111v-7.7778c0-0.61361 0.4975-1.1111 1.1111-1.1111h7.7778c0.61361 0 1.1111 0.4975 1.1111 1.1111z"/>
        <path d="m23 21.889c0 0.61361-0.4975 1.1111-1.1111 1.1111h-7.7778c-0.61361 0-1.1111-0.4975-1.1111-1.1111v-7.7778c0-0.61361 0.4975-1.1111 1.1111-1.1111h7.7778c0.61361 0 1.1111 0.4975 1.1111 1.1111z"/>
        <path d="m36 21.889c0 0.61361-0.4975 1.1111-1.1111 1.1111h-7.7778c-0.61361 0-1.1111-0.4975-1.1111-1.1111v-7.7778c0-0.61361 0.4975-1.1111 1.1111-1.1111h7.7778c0.61361 0 1.1111 0.4975 1.1111 1.1111z"/>
        <path d="m10 34.889c0 0.61361-0.4975 1.1111-1.1111 1.1111h-7.7778c-0.61361 0-1.1111-0.4975-1.1111-1.1111v-7.7778c0-0.61361 0.4975-1.1111 1.1111-1.1111h7.7778c0.61361 0 1.1111 0.4975 1.1111 1.1111z"/>
        <path d="m23 34.889c0 0.61361-0.4975 1.1111-1.1111 1.1111h-7.7778c-0.61361 0-1.1111-0.4975-1.1111-1.1111v-7.7778c0-0.61361 0.4975-1.1111 1.1111-1.1111h7.7778c0.61361 0 1.1111 0.4975 1.1111 1.1111z"/>
        <path d="m36 34.889c0 0.61361-0.4975 1.1111-1.1111 1.1111h-7.7778c-0.61361 0-1.1111-0.4975-1.1111-1.1111v-7.7778c0-0.61361 0.4975-1.1111 1.1111-1.1111h7.7778c0.61361 0 1.1111 0.4975 1.1111 1.1111z"/>
    </g>
</svg>
